<mxfile host="65bd71144e">
    <diagram id="C03Dv9k_8tI_BpTyPAFo" name="Page-1">
        <mxGraphModel dx="1470" dy="719" grid="1" gridSize="10" guides="1" tooltips="1" connect="1" arrows="1" fold="1" page="1" pageScale="1" pageWidth="827" pageHeight="1169" math="0" shadow="0">
            <root>
                <mxCell id="0"/>
                <mxCell id="1" parent="0"/>
                <mxCell id="2" value="" style="edgeStyle=none;html=1;" edge="1" parent="1" source="3" target="16">
                    <mxGeometry relative="1" as="geometry"/>
                </mxCell>
                <mxCell id="3" value="&lt;font style=&quot;font-size: 14px;&quot;&gt;เริ่ม&lt;/font&gt;" style="rounded=1;whiteSpace=wrap;html=1;fontSize=14;" vertex="1" parent="1">
                    <mxGeometry x="360" y="40" width="80" height="40" as="geometry"/>
                </mxCell>
                <mxCell id="4" value="" style="edgeStyle=none;html=1;" edge="1" parent="1" source="5" target="10">
                    <mxGeometry relative="1" as="geometry"/>
                </mxCell>
                <mxCell id="5" value="แสดงเลข IP ทั้งหมด&lt;br style=&quot;font-size: 14px;&quot;&gt;ที่ลิสต์ได้" style="strokeWidth=1;html=1;shape=mxgraph.flowchart.display;whiteSpace=wrap;fontSize=14;" vertex="1" parent="1">
                    <mxGeometry x="145" y="420" width="150" height="60" as="geometry"/>
                </mxCell>
                <mxCell id="6" value="ใช่" style="edgeStyle=none;html=1;entryX=0.5;entryY=0;entryDx=0;entryDy=0;exitX=0;exitY=0.5;exitDx=0;exitDy=0;fontSize=14;" edge="1" parent="1" source="8" target="14">
                    <mxGeometry x="-0.2308" relative="1" as="geometry">
                        <Array as="points">
                            <mxPoint x="220" y="260"/>
                        </Array>
                        <mxPoint as="offset"/>
                    </mxGeometry>
                </mxCell>
                <mxCell id="7" value="ไม่" style="edgeStyle=none;html=1;entryX=0.5;entryY=0;entryDx=0;entryDy=0;exitX=1;exitY=0.5;exitDx=0;exitDy=0;fontSize=14;" edge="1" parent="1" source="8" target="12">
                    <mxGeometry x="-0.2308" relative="1" as="geometry">
                        <Array as="points">
                            <mxPoint x="580" y="260"/>
                        </Array>
                        <mxPoint as="offset"/>
                    </mxGeometry>
                </mxCell>
                <mxCell id="8" value="เลือกเลขไอพีจากลิสต์&lt;br style=&quot;font-size: 14px;&quot;&gt;หรือกรอกด้วยตนเอง" style="rhombus;whiteSpace=wrap;html=1;fontSize=14;" vertex="1" parent="1">
                    <mxGeometry x="310" y="210" width="180" height="100" as="geometry"/>
                </mxCell>
                <mxCell id="9" style="edgeStyle=none;html=1;entryX=0;entryY=0.5;entryDx=0;entryDy=0;exitX=0.5;exitY=1;exitDx=0;exitDy=0;" edge="1" parent="1" source="10" target="20">
                    <mxGeometry relative="1" as="geometry">
                        <Array as="points">
                            <mxPoint x="220" y="640"/>
                        </Array>
                    </mxGeometry>
                </mxCell>
                <mxCell id="10" value="เลือกเลข IP ที่ต้องการจากช่องลิสต์" style="rounded=0;whiteSpace=wrap;html=1;fontSize=14;" vertex="1" parent="1">
                    <mxGeometry x="145" y="525" width="150" height="60" as="geometry"/>
                </mxCell>
                <mxCell id="11" style="edgeStyle=none;html=1;entryX=1;entryY=0.5;entryDx=0;entryDy=0;" edge="1" parent="1" source="12" target="20">
                    <mxGeometry relative="1" as="geometry">
                        <Array as="points">
                            <mxPoint x="580" y="640"/>
                        </Array>
                    </mxGeometry>
                </mxCell>
                <mxCell id="12" value="กรอกเลข IP ที่ต้องการ&lt;br style=&quot;font-size: 14px;&quot;&gt;เข้าไปเอง" style="rounded=0;whiteSpace=wrap;html=1;fontSize=14;" vertex="1" parent="1">
                    <mxGeometry x="510" y="310" width="140" height="60" as="geometry"/>
                </mxCell>
                <mxCell id="13" value="" style="edgeStyle=none;html=1;" edge="1" parent="1" source="14" target="5">
                    <mxGeometry relative="1" as="geometry"/>
                </mxCell>
                <mxCell id="14" value="&lt;span style=&quot;font-size: 14px;&quot;&gt;ลิสต์เลข IP ของคอมพิวเตอร์ทั้งหมด&lt;/span&gt;&lt;br style=&quot;border-color: var(--border-color); font-size: 14px;&quot;&gt;&lt;span style=&quot;font-size: 14px;&quot;&gt;ในโครงข่าย&lt;/span&gt;" style="rounded=0;whiteSpace=wrap;html=1;strokeWidth=1;fontSize=14;" vertex="1" parent="1">
                    <mxGeometry x="145" y="310" width="150" height="60" as="geometry"/>
                </mxCell>
                <mxCell id="15" value="" style="edgeStyle=none;html=1;" edge="1" parent="1" source="16" target="8">
                    <mxGeometry relative="1" as="geometry"/>
                </mxCell>
                <mxCell id="16" value="แสดงหน้าต่าง UI" style="strokeWidth=1;html=1;shape=mxgraph.flowchart.display;whiteSpace=wrap;fontSize=14;" vertex="1" parent="1">
                    <mxGeometry x="331.25" y="120" width="137.5" height="50" as="geometry"/>
                </mxCell>
                <mxCell id="17" value="" style="edgeStyle=none;html=1;" edge="1" parent="1" source="18" target="21">
                    <mxGeometry relative="1" as="geometry"/>
                </mxCell>
                <mxCell id="18" value="ส่งผ่านลิสต์ของเลข IP ที่เลือกมาไปยัง Scanner" style="rounded=0;whiteSpace=wrap;html=1;strokeWidth=1;fontSize=14;" vertex="1" parent="1">
                    <mxGeometry x="322.5" y="700" width="155" height="60" as="geometry"/>
                </mxCell>
                <mxCell id="19" value="" style="edgeStyle=none;html=1;" edge="1" parent="1" source="20" target="18">
                    <mxGeometry relative="1" as="geometry"/>
                </mxCell>
                <mxCell id="20" value="" style="ellipse;whiteSpace=wrap;html=1;aspect=fixed;strokeWidth=1;" vertex="1" parent="1">
                    <mxGeometry x="390" y="630" width="20" height="20" as="geometry"/>
                </mxCell>
                <mxCell id="21" value="m1" style="shape=offPageConnector;whiteSpace=wrap;html=1;" vertex="1" parent="1">
                    <mxGeometry x="380" y="800" width="40" height="40" as="geometry"/>
                </mxCell>
            </root>
        </mxGraphModel>
    </diagram>
    <diagram id="dUUsimjr_x462hAnNfNp" name="Page-2">
        <mxGraphModel dx="1470" dy="719" grid="1" gridSize="10" guides="1" tooltips="1" connect="1" arrows="1" fold="1" page="1" pageScale="1" pageWidth="827" pageHeight="1169" math="0" shadow="0">
            <root>
                <mxCell id="0"/>
                <mxCell id="1" parent="0"/>
            </root>
        </mxGraphModel>
    </diagram>
</mxfile>